<svg width="1024" height="1024" viewBox="0 0 1024 1024" fill="none" xmlns="http://www.w3.org/2000/svg">
<rect width="1024" height="1024" fill="#0f172a"/>
<path fill-rule="evenodd" clip-rule="evenodd" d="M1024 1024H0V0H1024V1024ZM50 974H291.048C185.783 923.566 100.434 838.217 50 732.952V974ZM974 732.952C923.566 838.217 838.217 923.566 732.952 974H974V732.952ZM208.118 860C283.49 925.871 380.453 967.651 487 973.333V860H208.118ZM537 973.333C643.547 967.651 740.51 925.871 815.882 860H537V973.333ZM50.666 537C56.3477 643.547 98.129 740.51 164 815.882V537H50.666ZM860 537V815.882C925.871 740.51 967.652 643.547 973.334 537H860ZM537 810H771.984L537 575.016V810ZM249.356 810H487V572.357L249.356 810ZM569.695 537L810 777.305V537H569.695ZM214 774.646L451.646 537H214V774.646ZM860 487H973.334C967.652 380.453 925.871 283.489 860 208.117V487ZM572.357 487H810V249.357L572.357 487ZM164 208.117C98.1287 283.489 56.3476 380.453 50.666 487H164V208.117ZM214 487H448.984L214 252.016V487ZM487 454.305V214H246.695L487 454.305ZM537 451.646L774.646 214H537V451.646ZM50 291.047C100.434 185.783 185.784 100.434 291.048 50H50V291.047ZM732.952 50C838.216 100.434 923.566 185.783 974 291.047V50H732.952ZM537 164H815.882C740.51 98.129 643.547 56.3477 537 50.666V164ZM487 50.666C380.453 56.3477 283.49 98.129 208.118 164H487V50.666Z" fill="white"/>
</svg>
